<svg width="20" height="20" viewBox="0 0 20 20" fill="none" xmlns="http://www.w3.org/2000/svg">
<path opacity="0.5" fill-rule="evenodd" clip-rule="evenodd" d="M8.57896 2.86059C7.0621 2.86059 5.60738 3.46313 4.5348 4.53565C3.46222 5.60816 2.85965 7.06281 2.85965 8.57958C2.85965 10.0964 3.46222 11.551 4.5348 12.6235C5.60738 13.696 7.0621 14.2986 8.57896 14.2986C10.0958 14.2986 11.5505 13.696 12.6231 12.6235C13.6957 11.551 14.2983 10.0964 14.2983 8.57958C14.2983 7.06281 13.6957 5.60816 12.6231 4.53565C11.5505 3.46313 10.0958 2.86059 8.57896 2.86059ZM1.6223e-07 8.57958C-0.000172136 7.22948 0.31834 5.89839 0.929632 4.69459C1.54092 3.49078 2.42773 2.44825 3.51794 1.65178C4.60814 0.855303 5.87096 0.327381 7.20367 0.110947C8.53639 -0.105487 9.90138 -0.0043214 11.1876 0.406215C12.4739 0.816751 13.6451 1.52507 14.6059 2.47355C15.5668 3.42204 16.2902 4.58391 16.7173 5.86468C17.1445 7.14545 17.2632 8.50894 17.064 9.84427C16.8648 11.1796 16.3532 12.4491 15.5708 13.5494L19.5986 17.577C19.8591 17.8466 20.0032 18.2078 19.9999 18.5827C19.9967 18.9575 19.8463 19.3161 19.5812 19.5812C19.3161 19.8463 18.9575 19.9967 18.5826 19.9999C18.2077 20.0032 17.8465 19.8591 17.5769 19.5987L13.5505 15.5725C12.267 16.4851 10.7571 17.0268 9.18617 17.1382C7.61526 17.2497 6.04398 16.9266 4.64451 16.2044C3.24503 15.4822 2.07137 14.3887 1.25213 13.0438C0.432895 11.6988 -0.000306056 10.1544 1.6223e-07 8.57958Z" fill="var(--text-color-light)"/>
</svg>
